HIERARCHY
ROOT Bip001_Pelvis
{
  OFFSET 32.8599 95.8771 -27.9544
  CHANNELS 6 Xposition Yposition Zposition Zrotation Xrotation Yrotation
  JOINT Bip001_Spine
  {
    OFFSET 1.4188e-005 10.2191 -0.0116013
    CHANNELS 3 Zrotation Xrotation Yrotation
    JOINT Bip001_L_Thigh
    {
      OFFSET 11.0458 -10.2191 0.0116197
      CHANNELS 3 Zrotation Xrotation Yrotation
      JOINT Bip001_L_Calf
      {
        OFFSET -0.707118 -44.0221 0.360014
        CHANNELS 3 Zrotation Xrotation Yrotation
        JOINT Bip001_L_Foot
        {
          OFFSET -0.651902 -40.5938 -3.56146
          CHANNELS 3 Zrotation Xrotation Yrotation
          JOINT Bip001_L_Toe0
          {
            OFFSET 0.0530839 -10.2181 13.1504
            CHANNELS 3 Zrotation Xrotation Yrotation
            End Site
            {
              OFFSET -1.02532e-005 0 7.55606
            }
          }
        }
      }
    }
    JOINT Bip001_R_Thigh
    {
      OFFSET -11.0458 -10.2191 0.0115893
      CHANNELS 3 Zrotation Xrotation Yrotation
      JOINT Bip001_R_Calf
      {
        OFFSET 0.706994 -44.0221 0.35984
        CHANNELS 3 Zrotation Xrotation Yrotation
        JOINT Bip001_R_Foot
        {
          OFFSET 0.651787 -40.5938 -3.5613
          CHANNELS 3 Zrotation Xrotation Yrotation
          JOINT Bip001_R_Toe0
          {
            OFFSET -0.0531479 -10.2181 13.1504
            CHANNELS 3 Zrotation Xrotation Yrotation
            End Site
            {
              OFFSET -1.02894e-005 0 7.55606
            }
          }
        }
      }
    }
    JOINT Bip001_Spine1
    {
      OFFSET 1.87041e-005 14.5736 1.08638
      CHANNELS 3 Zrotation Xrotation Yrotation
      JOINT Bip001_Spine2
      {
        OFFSET 2.24614e-005 14.5058 -1.69078
        CHANNELS 3 Zrotation Xrotation Yrotation
        JOINT Bip001_Neck
        {
          OFFSET 2.20278e-005 15.3945 -0.489414
          CHANNELS 3 Zrotation Xrotation Yrotation
          JOINT Bip001_L_Clavicle
          {
            OFFSET 6.06036 -0.000579998 0.00836775
            CHANNELS 3 Zrotation Xrotation Yrotation
            JOINT Bip001_L_UpperArm
            {
              OFFSET 11.5509 -0.0600302 0.00193952
              CHANNELS 3 Zrotation Xrotation Yrotation
              JOINT Bip001_L_Forearm
              {
                OFFSET 25.9523 0.0806089 -2.15551
                CHANNELS 3 Zrotation Xrotation Yrotation
                JOINT Bip001_L_Hand
                {
                  OFFSET 32.2475 0.153767 1.63968
                  CHANNELS 3 Zrotation Xrotation Yrotation
                  JOINT Bip001_L_Finger0
                  {
                    OFFSET 6.04639 -2.20976 5.90322
                    CHANNELS 3 Zrotation Xrotation Yrotation
                    End Site
                    {
                      OFFSET 4.22375 -1.43895 0.606486
                    }
                  }
                  JOINT Bip001_L_Finger1
                  {
                    OFFSET 11.0826 -0.704819 -0.198153
                    CHANNELS 3 Zrotation Xrotation Yrotation
                    End Site
                    {
                      OFFSET 6.20027 -0.397518 -0.0787166
                    }
                  }
                }
              }
            }
          }
          JOINT Bip001_R_Clavicle
          {
            OFFSET -6.06036 -0.000563197 0.00835105
            CHANNELS 3 Zrotation Xrotation Yrotation
            JOINT Bip001_R_UpperArm
            {
              OFFSET -11.5509 -0.0599978 0.00190698
              CHANNELS 3 Zrotation Xrotation Yrotation
              JOINT Bip001_R_Forearm
              {
                OFFSET -25.9523 0.0806819 -2.1559
                CHANNELS 3 Zrotation Xrotation Yrotation
                JOINT Bip001_R_Hand
                {
                  OFFSET -32.2476 0.153857 1.63991
                  CHANNELS 3 Zrotation Xrotation Yrotation
                  JOINT Bip001_R_Finger0
                  {
                    OFFSET -6.04642 -2.20975 5.9032
                    CHANNELS 3 Zrotation Xrotation Yrotation
                    End Site
                    {
                      OFFSET -4.22376 -1.43894 0.606473
                    }
                  }
                  JOINT Bip001_R_Finger1
                  {
                    OFFSET -11.0826 -0.70479 -0.198183
                    CHANNELS 3 Zrotation Xrotation Yrotation
                    End Site
                    {
                      OFFSET -6.20028 -0.397501 -0.0787337
                    }
                  }
                }
              }
            }
          }
          JOINT Bip001_Head
          {
            OFFSET 1.09673e-005 11.2744 2.05948
            CHANNELS 3 Zrotation Xrotation Yrotation
            End Site
            {
              OFFSET 2.89576e-005 20.8808 -2.77728e-005
            }
          }
        }
      }
    }
  }
}
MOTION
Frames:	6
Frame Time:	0.04
32.1682 95.806 -28.513 -0.596246 -0.525193 6.66159 -0.000659991 2.00309 0.508438 7.11746 -5.03415 6.86218 -1.49282 9.69932 -15.4487 4.20337 -3.54358 -0.0704326 -1.65848 -4.38785 2.77176 -0.983974 -1.87428 -7.8986 -1.93164 9.85154 1.10374 -5.87599 -9.34863 2.17325 2.30382 -7.74372 2.3134 -0.0189063 4.00607 1.01769 -0.0189973 4.0061 1.01776 -0.577114 -8.72614 -5.07547 -24.8407 7.39768 6.74273 -54.5662 46.5438 3.23948 17.2945 -0.308165 -23.7458 7.56574 2.55876 -2.45367 3.18055e-015 3.18055e-015 3.18055e-015 -0 0 3.18055e-015 13.4187 18.5924 40.3596 34.1437 11.5252 47.4849 -26.0369 -9.09336 67.7005 -78.324 34.9403 45.895 1.19271e-015 -3.18055e-015 7.95139e-016 2.20695e-032 -3.18056e-015 3.97569e-016 1.20622 -4.28708 -5.25876 
32.1405 95.8131 -28.5613 -0.596119 -0.443973 6.63183 -0.0258167 1.94281 0.506366 7.08052 -4.98404 7.63366 -1.35731 9.50588 -16.2634 4.94465 -2.97994 -0.111798 -1.34615 -4.79651 2.55999 -0.976315 -1.88817 -7.84082 -1.88655 9.77871 1.09067 -5.83703 -9.33164 2.18212 2.27046 -7.64876 2.31214 -0.0701232 3.88529 1.01529 -0.0694908 3.8853 1.01495 0.177723 -8.59333 -5.28489 -25.5353 7.17216 6.66477 -55.3273 45.8993 4.21206 17.4027 -0.511768 -24.2937 8.4197 2.26306 -2.83924 3.53112e-031 6.36111e-015 -3.18055e-015 3.18055e-015 6.36111e-015 -3.18055e-015 13.5529 18.7085 39.7817 33.2884 12.0133 46.6109 -24.0515 -10.4429 67.0799 -76.2262 34.1572 46.0076 -4.41391e-032 3.18055e-015 7.95139e-016 6.62086e-032 9.54167e-015 -3.97569e-016 0.505898 -4.60912 -5.1565 
32.1608 95.8022 -28.6409 -0.329435 -0.338334 6.54317 -0.0866751 1.91905 0.375743 6.81054 -4.84399 8.41309 -1.2865 9.0805 -17.0137 5.28042 -2.4416 -0.148217 -1.27427 -5.12911 2.52212 -1.29294 -2.25922 -7.67444 -1.80678 10.3392 1.06141 -5.82726 -9.59813 2.2277 2.26635 -7.63748 2.31096 -0.186091 3.8376 0.75502 -0.186091 3.83756 0.755018 -0.113841 -9.01475 -5.01562 -25.3241 7.64237 6.77837 -55.7629 45.1903 4.87522 17.1184 -0.950522 -24.8979 8.93418 2.16556 -3.04495 3.53112e-031 -6.36111e-015 3.18055e-015 3.53113e-031 -6.36111e-015 3.18055e-015 15.1437 19.5494 39.0381 33.2207 11.8843 43.2758 -23.0084 -8.51389 69.6356 -71.845 32.9018 42.7941 3.18055e-015 0 -3.18055e-015 1.59028e-015 0 -3.18055e-015 0.685936 -4.2782 -4.99646 
32.2798 95.8011 -28.6549 0.0228478 -0.382727 6.41594 -0.16009 1.95941 0.258163 6.3964 -4.58828 8.6389 -1.13967 8.71858 -16.9675 4.91011 -2.49708 -0.133767 -1.36007 -4.94845 2.5675 -1.74767 -2.44378 -7.64712 -1.69482 10.8087 1.01017 -5.77874 -9.87938 2.43485 2.26615 -7.64783 2.31405 -0.330093 3.91808 0.522365 -0.330092 3.91809 0.522365 -0.385978 -9.36801 -4.76683 -25.0749 8.04387 6.87579 -55.9683 45.248 4.88925 17.222 -0.805892 -24.743 8.14818 1.90283 -3.22823 -3.18055e-015 -3.18055e-015 -0 -3.18055e-015 -3.18056e-015 -0 17.1385 20.1853 37.3701 32.6891 12.8912 39.1254 -21.787 -6.63311 71.1504 -68.6198 30.0808 40.7752 7.95139e-016 -9.54166e-015 -3.18055e-015 2.38542e-015 -3.18056e-015 -1.59028e-015 0.908026 -4.33159 -4.85934 
32.3318 95.8108 -28.6684 0.108092 -0.267561 6.29099 -0.188076 1.93689 0.245994 6.25318 -4.55648 7.79975 -1.22396 8.4878 -15.9991 4.98491 -2.36704 -0.143864 -1.35168 -4.93271 2.59181 -1.87759 -2.58946 -7.47151 -1.6364 10.8969 0.96092 -5.79629 -9.90227 2.41147 2.267 -7.65651 2.32137 -0.385335 3.87295 0.498852 -0.385332 3.87294 0.49885 0.00993576 -9.30023 -4.85111 -25.3205 8.02743 6.54773 -56.157 45.619 4.69516 17.1549 -0.524882 -23.8071 7.63973 1.89631 -3.31634 -3.18055e-015 3.18055e-015 -3.18055e-015 -3.18055e-015 6.36111e-015 -3.18055e-015 18.9745 20.4344 35.0734 32.6758 14.2743 33.6475 -19.8301 -5.2736 72.5686 -62.6192 27.8069 38.8978 -4.77083e-015 -3.18055e-015 -0 -3.18055e-015 0 -1.59028e-015 0.491183 -4.59706 -4.77706 
32.4529 95.8164 -28.5904 0.375688 -0.47869 6.12959 -0.243106 1.9924 0.216012 5.92696 -4.10469 7.34877 -1.17453 8.09478 -15.3844 4.58821 -2.43152 -0.128727 -1.50018 -4.73986 2.656 -2.21721 -2.42123 -7.62482 -1.56916 11.0277 0.923986 -5.68546 -10.0852 2.7288 2.28471 -7.69881 2.32263 -0.492318 3.98384 0.440279 -0.49424 3.98386 0.440541 0.128927 -9.44947 -4.84177 -25.256 8.25848 6.29791 -56.9011 46.2072 4.57131 17.8544 1.69761 -23.0175 10.0265 1.91843 -3.59769 3.18055e-015 9.54166e-015 -4.77083e-015 3.18055e-015 1.27222e-014 -4.77083e-015 20.9224 20.6982 32.6548 33.9084 15.8721 27.3084 -16.8704 -5.24892 73.093 -55.5641 29.0526 36.7202 -1.59028e-015 -3.18055e-015 -3.18055e-015 -7.95139e-015 -3.18056e-015 -3.18055e-015 0.359893 -4.38077 -4.71148 
